# xmcd
#
# Track frame offsets: 
#        182
#        34520
#        59890
#        94752
#        117147
#        130242
#        151120
#        164205
#        180027
#        193935
#        216245
#        234002
#        252805
#        267960
#
# Disc length: 3891 seconds
#
# Revision: 1
# Processed by: cddbd v1.5.2PL0 Copyright (c) Steve Scherf et al.
# Submitted via: ExactAudioCopy v1.0b3
#
DISCID=bc0f310e
DTITLE=Hot Salsa - Hot Salsa
DYEAR=1900
DGENRE=Salsa
TTITLE0=Doble R - La Vida Continua
TTITLE1=Johnny Ventura - Mosaico
TTITLE2=Cuco Valoy - Guantanamera
TTITLE3=Jorge Cabrera - Mata Que Dios Perdonna
TTITLE4=Los Jovenes Del Hierro - Ritmo Sabroso
TTITLE5=Orquesta Noche Sabrosa - Culu Cucu
TTITLE6=Los Ahijados - El Hombre Misterioso
TTITLE7=Jorge Cabrera - Por Borracha
TTITLE8=Los Jovenes Del Hierro - Rico Moropo
TTITLE9=Cuco Valoy - Nacio Varon
TTITLE10=Johnny Ventura - Bobine (Banana)
TTITLE11=Los Ahijados - Timoteo
TTITLE12=Cuban Jam Session - Nambru
TTITLE13=Kelman Nuñez - El Dia De Mi Suerte
EXTD=
EXTT0=
EXTT1=
EXTT2=
EXTT3=
EXTT4=
EXTT5=
EXTT6=
EXTT7=
EXTT8=
EXTT9=
EXTT10=
EXTT11=
EXTT12=
EXTT13=
PLAYORDER=
